<?xml version="1.0" standalone="no"?>
<!DOCTYPE svg PUBLIC "-//W3C//DTD SVG 20010904//EN"
 "http://www.w3.org/TR/2001/REC-SVG-20010904/DTD/svg10.dtd">
<svg version="1.0" xmlns="http://www.w3.org/2000/svg"
 width="755.000000pt" height="755.000000pt" viewBox="0 0 755.000000 755.000000"
 preserveAspectRatio="xMidYMid meet">
<metadata>
Created by potrace 1.11, written by Peter Selinger 2001-2013
</metadata>
<g transform="translate(0.000000,755.000000) scale(0.100000,-0.100000)"
fill="#000000" stroke="none">
<path d="M3902 7423 l3 -128 58 -3 c35 -2 57 1 57 8 0 5 0 13 0 18 1 4 -14 9
-32 12 -30 5 -33 8 -33 40 0 34 1 35 40 35 29 0 40 4 40 15 0 8 -17 19 -40 26
-28 7 -41 17 -43 32 -3 18 2 21 45 24 40 3 48 6 48 23 0 18 -8 20 -73 23 l-73
3 3 -128z"/>
<path d="M3606 7461 c-10 -11 -16 -31 -14 -48 3 -26 6 -28 48 -28 40 0 45 3
48 23 4 25 -32 72 -53 72 -7 0 -20 -9 -29 -19z"/>
<path d="M4572 7443 c4 -34 48 -48 48 -16 0 22 -18 43 -38 43 -9 0 -12 -9 -10
-27z"/>
<path d="M2942 7433 c2 -10 13 -19 26 -21 17 -3 22 2 22 17 0 16 -6 21 -26 21
-19 0 -25 -5 -22 -17z"/>
<path d="M3066 7434 c-11 -28 -6 -80 9 -100 8 -10 15 -36 15 -57 0 -34 3 -38
23 -35 19 3 22 9 22 53 0 28 3 55 8 62 9 15 -1 40 -19 47 -8 3 -14 15 -14 26
0 24 -35 28 -44 4z"/>
<path d="M4118 7429 c-23 -17 -28 -28 -28 -64 0 -35 5 -48 27 -65 17 -13 38
-20 58 -18 30 3 30 3 28 -45 -1 -39 2 -47 17 -47 31 0 38 23 41 130 l3 105
-29 3 c-17 2 -34 8 -39 13 -16 15 -49 10 -78 -12z m92 -61 c0 -12 -7 -30 -17
-40 -15 -17 -17 -17 -35 -2 -23 21 -23 60 -1 73 24 13 53 -4 53 -31z"/>
<path d="M3307 7423 c-4 -3 -7 -21 -7 -40 0 -39 -26 -46 -39 -10 -12 31 -37
51 -56 43 -21 -8 -19 -29 5 -51 11 -10 20 -23 20 -28 0 -6 10 -21 22 -34 19
-20 20 -26 9 -47 -18 -32 -10 -60 17 -64 18 -3 22 1 22 25 0 16 7 38 15 49 8
10 15 33 15 51 0 17 5 35 10 38 6 3 10 22 10 41 0 26 -4 34 -18 34 -10 0 -22
-3 -25 -7z"/>
<path d="M4337 7423 c-4 -3 -7 -39 -7 -79 0 -65 2 -73 25 -88 33 -22 88 -21
108 2 10 10 17 33 17 50 0 18 5 41 12 51 13 22 5 51 -16 51 -19 0 -46 -55 -46
-92 0 -23 -4 -28 -25 -28 -24 0 -25 3 -25 54 0 30 -3 61 -6 70 -6 16 -26 21
-37 9z"/>
<path d="M4661 7370 c-13 -26 -21 -57 -19 -85 0 -24 -4 -51 -11 -59 -14 -17
-7 -36 13 -36 21 0 46 34 46 62 0 39 10 58 31 58 21 0 24 10 10 26 -5 5 -11
22 -13 39 -5 46 -32 43 -57 -5z"/>
<path d="M2967 7373 c-11 -10 5 -116 21 -140 8 -13 21 -23 28 -23 22 0 27 27
10 51 -9 13 -13 32 -10 46 9 36 -29 87 -49 66z"/>
<path d="M4550 7357 c0 -14 -7 -38 -15 -53 -19 -37 -19 -68 0 -84 20 -16 35
-4 35 29 0 16 7 34 16 41 10 9 14 26 12 49 -2 29 -8 37 -25 39 -19 3 -23 -1
-23 -21z"/>
<path d="M2820 7330 c-68 -20 -70 -21 -70 -59 0 -20 7 -45 15 -55 8 -11 15
-30 15 -43 0 -25 10 -29 28 -11 15 15 15 53 0 77 -17 28 -3 53 29 49 24 -3 28
-8 31 -38 4 -43 18 -60 48 -60 24 0 32 14 14 25 -5 3 -10 20 -10 37 0 36 -35
88 -58 87 -9 -1 -28 -5 -42 -9z"/>
<path d="M4792 7245 c4 -82 4 -85 -24 -112 -21 -20 -25 -30 -17 -40 6 -7 17
-13 24 -13 18 0 175 178 175 199 0 21 -24 11 -61 -25 -42 -41 -58 -39 -51 6 3
20 -2 37 -13 50 -32 35 -38 24 -33 -65z"/>
<path d="M2633 7275 c-3 -9 2 -24 11 -34 17 -19 21 -67 7 -90 -12 -18 -41 -7
-41 17 0 10 -5 23 -11 29 -7 7 -12 22 -13 35 -1 29 -24 30 -43 2 -12 -19 -12
-24 2 -37 8 -9 15 -27 15 -40 0 -18 10 -32 35 -47 33 -21 37 -21 54 -6 10 9
25 16 33 16 20 0 39 52 27 71 -5 8 -9 26 -9 40 0 43 -53 78 -67 44z"/>
<path d="M2405 7190 c-10 -11 -30 -20 -45 -20 -15 0 -33 -6 -40 -14 -6 -8 -23
-16 -38 -18 -41 -5 -41 -40 -1 -108 5 -8 13 -25 19 -37 11 -27 23 -29 40 -8
10 12 9 20 -4 40 -16 25 -22 76 -9 88 10 10 43 -23 43 -43 0 -19 30 -50 48
-50 28 0 26 25 -10 94 -14 27 14 55 36 36 9 -7 16 -22 16 -34 0 -11 9 -32 19
-46 16 -20 21 -22 35 -11 17 14 22 41 7 41 -5 0 -11 12 -14 28 -7 37 -44 82
-66 82 -10 0 -26 -9 -36 -20z"/>
<path d="M5167 7172 c-10 -10 -17 -25 -17 -34 0 -23 36 -50 62 -46 20 3 23 9
26 51 3 46 2 47 -26 47 -16 0 -36 -8 -45 -18z"/>
<path d="M5510 7101 c0 -11 -4 -22 -9 -25 -5 -3 -21 -29 -36 -58 -15 -29 -33
-60 -41 -69 -8 -8 -14 -20 -14 -26 0 -13 34 -43 49 -43 7 0 19 -7 28 -15 19
-20 37 -14 41 13 2 15 -3 21 -20 24 -25 3 -35 33 -18 58 8 13 13 13 41 -2 41
-24 49 -23 49 7 0 18 -7 28 -26 35 -16 7 -24 16 -22 28 4 22 51 28 68 7 12
-14 15 -14 31 1 23 21 24 34 4 34 -9 0 -33 11 -55 25 -48 30 -70 32 -70 6z"/>
<path d="M2106 7044 c-5 -19 -12 -25 -26 -21 -10 3 -27 -1 -37 -9 -10 -7 -25
-14 -34 -14 -9 0 -22 -7 -29 -16 -11 -12 -8 -25 20 -77 42 -80 43 -81 66 -56
14 16 15 23 7 26 -7 3 -13 13 -13 23 0 9 -7 23 -15 30 -25 21 -18 42 12 38 20
-2 32 -14 47 -43 22 -42 48 -53 54 -22 2 10 -3 29 -12 42 -23 35 -21 75 3 75
19 0 51 -48 51 -77 0 -9 8 -13 23 -11 27 4 35 42 15 66 -8 9 -20 29 -28 45
-11 23 -20 27 -56 27 -37 0 -43 -3 -48 -26z"/>
<path d="M5797 6942 c-15 -15 -27 -36 -27 -45 0 -23 -9 -21 -36 8 -31 33 -82
34 -112 2 -16 -17 -22 -36 -22 -69 0 -45 2 -47 46 -72 26 -14 54 -26 63 -26
17 0 61 50 61 68 0 5 6 15 14 21 8 7 21 26 30 44 9 18 22 39 28 48 12 17 5 49
-10 49 -4 0 -20 -13 -35 -28z m-77 -97 c0 -33 -2 -35 -35 -35 -32 0 -35 3 -35
28 0 16 3 32 7 35 3 4 19 7 35 7 25 0 28 -3 28 -35z"/>
<path d="M1860 6915 c-7 -8 -18 -15 -25 -15 -22 0 -45 -36 -45 -73 0 -29 6
-41 33 -61 19 -15 44 -26 55 -26 70 0 119 136 58 160 -13 5 -27 14 -31 19 -9
16 -30 13 -45 -4z m38 -47 c18 -18 15 -77 -4 -85 -16 -6 -54 27 -54 48 0 13
29 49 40 49 3 0 11 -5 18 -12z"/>
<path d="M1609 6853 c-14 -15 -33 -44 -43 -63 -18 -35 -18 -35 11 -84 15 -27
35 -52 43 -56 65 -33 71 -34 90 -22 11 7 26 12 33 12 7 0 26 14 42 30 27 28
28 32 13 47 -15 15 -19 14 -48 -11 -39 -33 -74 -33 -105 -1 -42 41 -24 116 30
126 12 3 20 12 20 24 0 34 -55 32 -86 -2z"/>
<path d="M5843 6813 c-4 -10 -17 -31 -30 -46 -47 -58 -18 -127 54 -127 32 0
46 7 76 38 39 40 47 69 22 78 -8 4 -27 -8 -46 -30 -33 -38 -66 -47 -76 -21 -3
9 2 24 11 34 9 10 16 22 16 28 0 6 5 13 11 15 8 3 8 10 -2 26 -17 27 -27 28
-36 5z"/>
<path d="M6015 6663 c-62 -16 -76 -89 -25 -138 29 -28 30 -28 51 -9 l21 19
-24 5 c-19 5 -23 12 -23 40 0 29 4 36 23 38 13 2 32 -4 41 -12 16 -15 19 -15
36 4 18 20 18 21 -1 35 -10 8 -23 15 -29 15 -5 0 -19 2 -30 4 -11 2 -29 2 -40
-1z"/>
<path d="M6138 6552 c-16 -10 -28 -22 -28 -28 0 -6 -7 -17 -15 -24 -24 -20
-18 -33 41 -94 l56 -57 54 58 c29 32 53 64 54 70 0 7 -11 15 -25 19 -14 3 -25
13 -25 23 0 18 -49 52 -72 50 -7 0 -25 -8 -40 -17z m72 -52 c26 -26 25 -32 -5
-60 -20 -19 -27 -21 -40 -10 -17 14 -19 43 -5 71 13 24 25 24 50 -1z"/>
<path d="M1318 6515 c-16 -35 13 -67 56 -63 29 3 31 6 34 46 l3 42 -41 0 c-33
0 -42 -4 -52 -25z"/>
<path d="M6370 6435 c-7 -8 -21 -15 -31 -15 -12 0 -19 -7 -19 -18 0 -10 -16
-33 -35 -52 -38 -37 -46 -70 -17 -70 10 0 33 16 52 35 22 23 43 35 60 35 33 0
43 9 29 27 -9 10 -8 17 1 28 15 18 6 45 -13 45 -8 0 -20 -7 -27 -15z"/>
<path d="M6497 6374 c-4 -4 -7 -16 -7 -26 0 -14 6 -19 23 -16 14 2 22 10 22
23 0 20 -25 32 -38 19z"/>
<path d="M1127 6323 c-13 -12 -7 -56 10 -75 13 -14 14 -21 5 -30 -9 -9 -15 -9
-24 0 -7 7 -29 12 -50 12 -31 0 -38 -4 -38 -20 0 -13 9 -21 28 -25 15 -4 35
-10 44 -16 10 -5 26 -9 36 -9 24 0 47 -27 56 -63 7 -30 23 -32 40 -5 7 12 6
25 -3 45 -8 15 -21 44 -29 63 -8 19 -19 43 -23 52 -5 10 -9 24 -9 31 0 18 -34
49 -43 40z"/>
<path d="M6420 6297 c-19 -18 -47 -42 -63 -54 -17 -13 -25 -27 -21 -37 11 -27
37 -17 97 37 57 50 58 53 40 69 -17 16 -20 15 -53 -15z"/>
<path d="M6482 6215 c-13 -7 -32 -27 -43 -44 -18 -30 -18 -34 -3 -63 38 -73
93 -87 143 -37 49 48 35 111 -32 144 -35 17 -34 17 -65 0z m62 -51 c21 -8 20
-33 -1 -56 -20 -22 -49 -23 -57 -2 -9 24 -8 31 10 48 17 18 24 19 48 10z"/>
<path d="M948 6119 c-31 -32 -38 -46 -38 -80 0 -39 17 -69 39 -69 6 0 20 -5
31 -12 16 -10 25 -7 59 20 22 18 45 32 51 32 22 0 5 -35 -27 -55 -36 -22 -44
-55 -14 -55 11 0 23 5 26 10 3 6 14 10 23 10 18 1 52 58 52 88 0 25 -144 159
-162 151 -2 -1 -20 -19 -40 -40z m77 -64 c0 -28 -3 -30 -35 -30 -24 0 -36 5
-38 16 -4 23 26 51 52 47 16 -2 21 -10 21 -33z"/>
<path d="M6599 6017 c-37 -34 -45 -47 -37 -60 12 -23 21 -21 57 9 33 27 74 29
79 4 1 -9 -17 -29 -43 -48 -25 -17 -45 -35 -45 -39 0 -5 10 -14 22 -22 18 -11
22 -11 30 2 4 9 26 26 48 38 55 31 55 69 1 122 -21 20 -45 37 -52 37 -8 0 -35
-19 -60 -43z"/>
<path d="M812 5934 c-12 -8 -29 -29 -38 -45 -14 -28 -14 -33 2 -57 29 -45 41
-52 81 -52 44 1 61 12 85 58 17 31 15 62 -3 62 -5 0 -9 8 -9 19 0 13 -10 20
-31 25 -47 9 -62 8 -87 -10z m78 -52 l21 -17 -25 -24 c-24 -23 -25 -23 -50 -5
-28 21 -32 34 -14 52 17 17 42 15 68 -6z"/>
<path d="M615 5833 c-15 -11 -17 -17 -9 -31 6 -9 20 -19 30 -20 10 -2 30 -14
44 -27 14 -12 32 -25 40 -29 29 -13 60 -33 80 -51 15 -14 23 -16 32 -7 16 16
1 62 -20 62 -10 0 -29 11 -42 25 -13 14 -28 25 -33 25 -5 0 -31 15 -57 34 -41
30 -48 32 -65 19z"/>
<path d="M6868 5719 c-39 -22 -8 -89 41 -89 27 0 46 39 37 74 -5 20 -13 26
-34 26 -15 0 -35 -5 -44 -11z"/>
<path d="M622 5647 c-43 -44 -43 -83 1 -125 40 -39 60 -40 104 -6 29 22 33 30
33 73 0 41 -4 50 -30 69 -41 31 -71 28 -108 -11z m84 -43 c16 -24 16 -26 -4
-47 l-22 -21 -21 21 c-16 16 -20 28 -15 47 8 34 40 34 62 0z"/>
<path d="M517 5472 c-10 -10 -17 -29 -17 -42 0 -13 -7 -31 -16 -41 -9 -10 -13
-22 -10 -27 9 -16 127 -73 137 -66 21 12 6 40 -32 62 -30 18 -39 29 -37 45 2
18 9 21 33 19 17 -2 37 -10 46 -18 22 -20 36 -18 49 7 7 11 10 22 8 23 -28 17
-117 56 -129 56 -9 0 -23 -8 -32 -18z"/>
<path d="M7121 5405 c-20 -9 -66 -15 -117 -15 -46 0 -84 -3 -84 -8 0 -4 10
-14 23 -22 23 -15 28 -17 50 -19 7 0 21 -19 31 -41 16 -36 16 -41 2 -56 -18
-18 -21 -50 -5 -60 13 -8 189 164 189 184 0 13 -38 51 -50 51 -3 0 -20 -6 -39
-14z m-11 -69 c0 -18 -27 -39 -40 -31 -14 9 -13 32 3 38 23 10 37 7 37 -7z"/>
<path d="M431 5265 c-17 -15 -31 -35 -31 -46 0 -23 0 -23 -36 -4 -16 8 -39 15
-52 15 -34 0 -27 -44 8 -48 14 -2 32 -9 40 -15 28 -22 60 -37 78 -37 10 0 22
-4 28 -9 13 -13 56 -17 72 -7 16 10 -2 36 -27 36 -22 1 -61 35 -61 54 0 12 10
16 34 16 19 0 38 -4 41 -10 9 -14 34 -12 51 4 21 22 17 36 -10 36 -14 0 -28 5
-31 10 -3 6 -16 10 -29 10 -12 0 -27 5 -33 11 -7 7 -19 2 -42 -16z"/>
<path d="M7082 5157 c-25 -27 -28 -65 -8 -110 8 -18 16 -39 19 -48 4 -12 13
-15 34 -11 15 2 33 8 38 12 6 3 30 13 55 20 25 7 52 19 60 26 8 7 26 14 40 16
17 2 25 9 25 23 0 26 -38 32 -71 10 -27 -17 -44 -13 -44 12 0 8 -9 28 -21 44
-17 24 -27 29 -63 29 -32 0 -48 -6 -64 -23z m104 -52 c11 -43 -34 -73 -64 -43
-13 13 -16 50 -5 61 3 4 19 7 34 7 22 0 30 -6 35 -25z"/>
<path d="M348 5079 c-12 -7 -18 -22 -18 -49 0 -32 6 -43 33 -64 43 -33 70 -33
108 1 23 21 29 34 27 58 -4 37 -41 44 -46 8 -4 -24 -30 -37 -56 -27 -12 5 -16
16 -14 42 3 38 -7 47 -34 31z"/>
<path d="M7250 4973 c0 -5 -25 -26 -55 -48 -61 -45 -71 -75 -30 -93 31 -14
165 -16 165 -2 0 20 -49 42 -79 35 -43 -9 -47 11 -7 37 27 17 36 30 36 51 0
17 -5 27 -15 27 -8 0 -15 -3 -15 -7z"/>
<path d="M287 4882 c-35 -36 -34 -71 1 -105 35 -33 99 -38 125 -9 17 18 24
102 10 115 -12 13 -33 -15 -27 -37 3 -14 -1 -28 -11 -36 -25 -20 -37 0 -20 34
25 48 20 66 -18 66 -23 0 -41 -8 -60 -28z m43 -42 c0 -11 -4 -20 -9 -20 -14 0
-23 18 -16 30 10 17 25 11 25 -10z"/>
<path d="M157 4752 c-10 -10 -17 -34 -17 -53 0 -19 -5 -40 -12 -47 -9 -9 -9
-15 0 -24 9 -9 16 -8 30 5 20 18 87 23 97 7 3 -5 23 -10 44 -10 22 0 44 -6 51
-15 17 -20 30 -9 30 26 0 27 -3 29 -38 29 -21 0 -47 7 -58 15 -10 8 -36 15
-56 15 -37 0 -38 1 -38 35 0 39 -9 44 -33 17z"/>
<path d="M7242 4755 c-13 -7 -31 -27 -41 -45 -16 -32 -17 -35 0 -67 23 -45 47
-62 85 -63 31 0 46 11 71 54 24 42 25 47 9 65 -9 10 -16 22 -16 27 0 11 -57
44 -73 43 -7 -1 -22 -7 -35 -14z m82 -67 c8 -13 6 -22 -8 -37 -24 -27 -48 -27
-72 0 -19 21 -18 21 5 40 28 23 59 22 75 -3z"/>
<path d="M7297 4536 c-39 -17 -64 -68 -49 -101 7 -15 20 -25 32 -25 22 0 26
10 8 28 -18 18 9 42 48 42 28 0 36 -5 44 -25 11 -28 28 -33 36 -10 11 26 -19
76 -55 91 -18 8 -34 14 -35 13 0 0 -14 -6 -29 -13z"/>
<path d="M158 4363 c-40 -10 -9 -93 34 -93 21 0 48 32 48 58 0 32 -35 47 -82
35z"/>
<path d="M7297 4342 c-19 -21 -23 -82 -6 -99 8 -8 7 -17 -2 -32 -19 -29 2 -51
31 -33 11 6 42 12 69 12 56 0 69 11 51 46 -11 19 -11 26 0 39 11 13 10 21 -6
50 -17 33 -22 35 -70 35 -37 0 -56 -5 -67 -18z m101 -64 c-3 -29 -7 -33 -32
-33 -32 0 -53 23 -43 49 4 11 18 16 42 16 35 0 36 -1 33 -32z"/>
<path d="M690 4216 c-84 -56 -90 -78 -90 -379 0 -136 4 -255 9 -265 4 -9 16
-33 25 -52 24 -50 63 -65 169 -64 77 1 90 4 112 24 42 39 55 77 55 157 l0 73
-65 0 -65 0 0 -58 c0 -64 -11 -82 -51 -82 -21 0 -28 6 -34 28 -12 48 -18 452
-7 476 6 11 13 29 16 39 7 22 25 21 53 -2 17 -14 23 -31 25 -72 l3 -54 63 -3
62 -3 -1 78 c-1 85 -18 129 -58 149 -13 7 -28 17 -34 23 -6 6 -42 11 -81 10
-57 0 -78 -5 -106 -23z"/>
<path d="M4753 4221 c-22 -11 -41 -33 -58 -69 -25 -52 -25 -56 -25 -307 0
-212 2 -256 15 -269 8 -8 15 -21 15 -30 0 -8 16 -31 35 -51 35 -34 37 -35 119
-35 102 0 135 15 171 75 22 38 25 55 23 108 l-3 62 -65 0 -65 0 -3 -54 c-3
-60 -18 -81 -56 -81 -19 0 -26 5 -26 19 0 11 -4 23 -10 26 -6 4 -10 95 -10
240 0 208 2 237 17 255 37 43 83 10 83 -58 l0 -42 70 0 70 0 0 59 c0 40 -5 63
-15 71 -8 7 -15 21 -15 31 0 10 -15 29 -33 43 -31 24 -42 26 -118 25 -55 -1
-95 -7 -116 -18z"/>
<path d="M5746 4162 l-49 -3 7 -142 c4 -78 4 -150 1 -159 -13 -34 -33 -19 -38
30 -11 91 -24 153 -35 164 -7 7 -12 28 -12 48 0 51 -14 60 -92 60 l-68 0 2
-347 3 -348 55 0 55 0 -3 159 c-4 175 3 249 21 243 7 -2 15 -26 19 -53 4 -27
11 -74 16 -105 4 -32 13 -63 19 -70 6 -8 13 -34 16 -59 3 -25 9 -61 14 -80 9
-35 9 -35 71 -38 l62 -3 0 350 c0 192 -3 351 -7 353 -5 2 -30 2 -57 0z m-19
-397 c7 -20 -2 -29 -21 -22 -9 4 -13 13 -10 22 8 19 23 19 31 0z"/>
<path d="M5874 4161 c-2 -2 -4 -26 -4 -53 l0 -48 44 0 c24 0 48 -6 54 -12 6
-8 11 -118 14 -281 1 -148 6 -277 10 -288 7 -17 15 -20 55 -17 l48 3 3 290 c2
216 5 291 15 297 6 4 29 8 50 8 l37 0 0 50 0 49 -161 3 c-88 2 -163 1 -165 -1z"/>
<path d="M6382 4160 c-67 -3 -122 -8 -122 -12 0 -5 0 -159 0 -343 l0 -335 129
0 c129 0 130 0 151 27 11 15 20 36 18 47 -3 19 -12 22 -83 26 l-80 5 0 95 0
95 68 3 67 3 0 54 0 55 -70 0 -71 0 3 88 3 87 68 3 68 3 -3 51 c-2 28 -7 52
-13 53 -5 0 -65 -2 -133 -5z"/>
<path d="M6619 4159 c-6 -3 -9 -140 -7 -340 l3 -334 62 -3 62 -3 3 143 c3 138
4 143 25 146 12 2 31 -6 42 -17 19 -19 21 -33 21 -146 l0 -125 55 0 55 0 0
149 0 150 -27 21 -26 20 28 30 c27 28 28 33 28 130 -1 95 -2 103 -27 129 -14
14 -45 32 -68 38 -46 13 -214 22 -229 12z m189 -118 c18 -16 22 -29 22 -74 0
-61 -22 -91 -62 -85 -21 3 -23 8 -26 76 -4 98 16 124 66 83z"/>
<path d="M5130 3810 l0 -351 138 3 137 3 0 50 0 50 -83 3 -83 3 3 97 3 97 68
3 67 3 0 54 0 55 -70 0 -70 0 0 85 0 84 73 3 72 3 3 53 3 52 -130 0 -131 0 0
-350z"/>
<path d="M7346 4130 c-37 -24 -46 -38 -46 -75 0 -64 46 -75 52 -13 2 28 7 34
30 36 22 3 30 -2 38 -22 14 -37 50 -36 50 2 0 29 -25 59 -67 81 -26 13 -21 14
-57 -9z"/>
<path d="M1107 4133 c-4 -3 -7 -37 -7 -74 0 -37 -4 -71 -10 -74 -5 -3 -10 -38
-10 -76 0 -39 -4 -78 -9 -88 -5 -9 -11 -48 -12 -86 -1 -39 -8 -79 -14 -90 -7
-12 -14 -58 -16 -103 l-4 -82 57 0 c58 0 58 0 58 30 0 16 4 39 9 52 5 13 12
35 15 51 6 24 11 27 44 27 53 0 62 -13 62 -92 l0 -68 64 0 c36 0 67 4 70 8 3
4 0 26 -6 48 -6 21 -13 71 -15 109 -3 39 -9 74 -14 79 -5 6 -9 39 -9 75 -1 38
-7 77 -15 91 -8 15 -14 53 -15 92 0 37 -4 70 -10 73 -5 3 -10 28 -10 56 l0 49
-98 0 c-54 0 -102 -3 -105 -7z m115 -140 c1 -21 2 -60 4 -88 1 -27 7 -63 13
-78 6 -16 11 -41 11 -57 0 -23 -5 -31 -25 -36 -14 -3 -32 -4 -40 0 -17 6 -20
51 -5 61 6 4 10 53 10 114 0 59 3 111 7 114 15 15 23 5 25 -30z"/>
<path d="M1460 3800 l0 -341 68 3 67 3 2 140 c1 77 2 146 2 153 2 20 36 14 59
-11 20 -21 22 -34 22 -155 l0 -132 58 0 57 0 -3 146 c-3 128 -6 149 -23 167
-24 26 -24 38 -1 68 30 39 42 115 28 179 -15 70 -32 100 -56 100 -11 0 -20 5
-20 10 0 6 -50 10 -130 10 l-130 0 0 -340z m197 238 c19 -18 23 -32 23 -83 0
-53 -4 -65 -25 -85 -21 -19 -29 -22 -43 -14 -14 9 -17 27 -18 95 -1 110 15
132 63 87z"/>
<path d="M1890 3800 l0 -340 141 0 140 0 -3 53 -3 52 -80 5 -80 5 -3 283 -2
282 -55 0 -55 0 0 -340z"/>
<path d="M123 4018 c-6 -7 -8 -30 -6 -50 5 -37 7 -38 44 -38 33 0 41 4 49 26
12 31 34 21 27 -12 -5 -29 8 -40 29 -23 10 8 14 27 12 58 -3 45 -4 46 -41 49
-32 3 -38 0 -47 -23 -12 -31 -36 -28 -32 3 4 24 -19 30 -35 10z"/>
<path d="M7448 3972 c-5 -12 -109 -62 -130 -62 -10 0 -27 5 -37 12 -10 6 -26
8 -35 5 -21 -8 -21 -36 2 -43 9 -3 25 -10 34 -15 10 -5 24 -9 31 -9 7 0 44
-16 81 -35 38 -19 70 -35 72 -35 2 0 4 8 4 18 0 23 -30 52 -53 52 -30 0 -18
31 18 46 29 12 35 19 35 44 0 27 -14 41 -22 22z"/>
<path d="M117 3847 c-9 -24 5 -72 27 -89 52 -42 136 1 136 70 0 43 -30 43 -50
-1 -11 -23 -22 -32 -40 -32 -21 0 -26 5 -28 33 -2 23 -8 32 -22 32 -10 0 -20
-6 -23 -13z"/>
<path d="M20 3665 c0 -25 13 -31 44 -19 22 8 2 44 -24 44 -15 0 -20 -7 -20
-25z"/>
<path d="M117 3676 c-10 -25 16 -36 83 -36 67 0 93 11 83 36 -4 10 -26 14 -83
14 -57 0 -79 -4 -83 -14z"/>
<path d="M173 3582 c-51 -16 -53 -18 -53 -52 0 -20 5 -41 11 -47 8 -8 7 -17
-5 -34 -13 -20 -14 -25 -2 -38 8 -9 16 -29 18 -46 3 -29 5 -30 57 -33 73 -4
101 4 101 28 0 17 -7 20 -53 20 -52 0 -77 12 -77 37 0 9 14 13 40 13 27 0 47
7 60 20 25 25 16 55 -14 45 -35 -12 -89 -11 -93 2 -6 17 55 53 88 53 30 0 44
21 26 39 -15 15 -41 13 -104 -7z"/>
<path d="M7391 3547 c-22 -42 -11 -62 37 -65 l43 -3 -3 43 c-3 40 -5 43 -34
46 -23 2 -33 -2 -43 -21z"/>
<path d="M177 3262 c-23 -26 -23 -104 1 -124 44 -38 114 -31 137 15 22 43 19
67 -12 99 -33 34 -99 39 -126 10z m87 -41 c10 -11 16 -28 14 -38 -5 -26 -50
-29 -73 -3 -17 19 -17 21 0 40 23 25 37 25 59 1z"/>
<path d="M7271 3221 c-14 -25 -5 -31 41 -31 21 0 38 -4 38 -9 0 -11 -56 -41
-77 -41 -7 0 -13 -11 -13 -25 0 -30 24 -33 52 -8 17 15 20 15 48 -12 24 -23
39 -28 76 -28 49 0 64 11 64 51 0 12 5 22 10 22 6 0 10 16 10 35 0 34 -1 35
-38 35 -21 0 -47 7 -58 15 -12 9 -42 14 -81 15 -51 0 -64 -3 -72 -19z m199
-70 c0 -15 -25 -31 -47 -31 -16 0 -23 6 -23 18 0 10 2 21 5 24 7 7 65 -3 65
-11z"/>
<path d="M235 3046 c-44 -25 -57 -62 -31 -89 11 -11 14 -25 10 -46 -5 -24 -3
-31 9 -31 9 0 19 5 22 10 3 6 25 10 48 10 49 0 93 29 84 54 -7 18 -32 22 -42
6 -3 -5 -26 -10 -51 -10 -36 0 -44 3 -44 19 0 24 38 49 81 53 26 2 34 8 34 23
0 30 -68 30 -120 1z"/>
<path d="M7225 2994 c-11 -18 -15 -38 -12 -60 4 -22 1 -37 -9 -45 -29 -24 -16
-39 35 -39 28 0 53 -4 56 -10 3 -5 17 -10 31 -10 20 0 24 5 24 29 0 16 7 34
15 41 8 7 15 29 15 49 0 50 -26 71 -89 71 -42 0 -51 -4 -66 -26z m103 -56 c-3
-29 -7 -33 -35 -36 -32 -3 -33 -2 -33 32 0 35 1 36 36 36 34 0 35 -1 32 -32z"/>
<path d="M277 2832 c-11 -12 -17 -36 -17 -67 0 -61 24 -85 86 -85 38 0 44 4
63 36 28 47 26 68 -9 104 -35 36 -96 42 -123 12z m93 -47 c34 -41 -28 -76 -64
-36 -15 17 -16 23 -6 36 16 19 54 19 70 0z"/>
<path d="M7177 2782 c-20 -22 -27 -83 -10 -89 7 -3 17 6 22 19 16 42 36 52 65
31 26 -18 34 -47 16 -58 -16 -10 -11 -25 8 -25 30 0 55 35 48 65 -16 64 -110
100 -149 57z"/>
<path d="M426 2625 c11 -60 -44 -93 -68 -40 -17 37 -48 33 -48 -6 0 -44 20
-59 82 -59 49 0 55 3 71 29 21 36 22 60 1 89 -25 36 -46 29 -38 -13z"/>
<path d="M7117 2634 c-12 -13 13 -42 40 -47 16 -3 46 -12 68 -20 46 -18 55
-15 55 19 0 20 -5 24 -29 24 -16 0 -34 7 -41 15 -12 15 -81 21 -93 9z"/>
<path d="M7313 2574 c-7 -18 6 -45 24 -51 14 -5 23 20 16 46 -6 25 -31 28 -40
5z"/>
<path d="M7086 2515 c-14 -13 -26 -35 -26 -48 0 -12 -5 -28 -11 -34 -17 -17
-7 -57 16 -61 20 -3 53 -16 88 -34 24 -12 37 -2 37 30 0 16 8 34 20 42 30 22
26 70 -8 103 -36 35 -80 36 -116 2z m88 -47 c32 -45 -31 -90 -68 -49 -18 19
-18 22 -2 46 20 31 50 32 70 3z"/>
<path d="M475 2479 c-4 -5 0 -18 9 -28 28 -31 20 -51 -19 -51 -32 0 -35 2 -35
31 0 23 -4 30 -16 27 -28 -5 -41 -35 -26 -58 17 -28 15 -50 -6 -50 -23 0 -52
30 -52 53 0 22 -38 23 -47 2 -3 -9 1 -23 9 -33 9 -9 18 -28 22 -42 11 -46 23
-57 46 -42 11 6 26 12 33 12 18 0 75 28 82 41 4 5 16 9 29 9 33 0 55 29 49 63
-3 16 -12 31 -19 34 -8 3 -14 14 -14 24 0 21 -34 27 -45 8z"/>
<path d="M6997 2324 c-11 -11 13 -44 32 -44 10 0 24 -7 31 -15 7 -8 17 -15 24
-15 6 0 39 -14 73 -31 51 -25 66 -29 78 -19 19 16 2 50 -24 50 -10 0 -24 7
-31 15 -7 8 -19 15 -26 15 -14 0 -23 4 -81 34 -32 16 -65 21 -76 10z"/>
<path d="M6887 2112 c-18 -19 -22 -59 -9 -77 10 -15 139 -95 152 -95 5 0 10
-4 10 -10 0 -16 40 -11 47 5 6 18 -23 55 -44 55 -21 0 -124 72 -120 84 2 6 13
12 25 14 14 2 22 11 22 23 0 26 -60 27 -83 1z"/>
<path d="M535 2090 c-15 -16 -16 -24 -7 -45 12 -26 51 -41 78 -31 11 4 14 17
12 48 -3 40 -5 43 -34 46 -20 2 -36 -4 -49 -18z"/>
<path d="M6808 1953 c-14 -9 -29 -29 -32 -45 -7 -35 3 -88 17 -88 5 0 25 -12
44 -26 36 -27 63 -26 63 2 0 18 -22 39 -57 54 -23 10 -28 25 -17 54 8 22 20
20 58 -9 39 -30 48 -31 69 -7 19 21 13 32 -15 32 -10 0 -18 4 -18 8 0 8 -64
42 -78 42 -4 0 -19 -8 -34 -17z"/>
<path d="M795 1841 c-11 -19 -68 -42 -79 -31 -16 16 -26 12 -26 -9 0 -11 -4
-23 -10 -26 -5 -3 -10 -18 -10 -32 0 -21 3 -24 23 -19 12 3 32 6 45 6 13 0 22
6 22 15 0 9 8 18 18 22 25 9 82 65 76 75 -7 11 -51 10 -59 -1z"/>
<path d="M6687 1770 c-30 -33 -32 -47 -13 -72 15 -21 58 -23 86 -6 27 17 37 2
11 -19 -15 -13 -18 -22 -11 -33 8 -13 13 -12 37 6 22 17 28 29 28 60 0 37 -2
39 -33 42 -21 2 -41 -3 -52 -13 -14 -13 -20 -13 -26 -4 -4 8 1 18 14 27 12 8
22 21 22 28 0 24 -36 15 -63 -16z"/>
<path d="M880 1760 c0 -5 -5 -10 -12 -10 -6 0 -26 -11 -45 -26 -26 -19 -33
-32 -33 -58 0 -19 7 -40 16 -47 9 -7 20 -23 25 -36 5 -13 16 -23 26 -23 24 0
117 71 121 93 6 30 -27 32 -57 3 -30 -29 -78 -35 -88 -10 -5 14 26 54 44 54 4
0 19 9 33 19 20 16 22 21 11 35 -15 18 -41 22 -41 6z"/>
<path d="M6594 1649 c-3 -6 14 -32 40 -58 25 -26 46 -54 46 -64 0 -20 11 -22
28 -5 8 8 15 8 26 -2 18 -14 46 -7 46 12 0 20 -56 78 -75 78 -9 0 -28 11 -43
25 -28 26 -56 32 -68 14z"/>
<path d="M990 1571 c0 -15 30 -41 46 -41 8 0 14 -10 14 -25 0 -35 -12 -31 -50
16 l-33 41 -20 -21 c-29 -28 -27 -85 4 -112 37 -32 85 -22 122 24 l31 38 -19
32 c-10 18 -24 38 -31 45 -15 14 -64 16 -64 3z m4 -94 c12 -19 3 -32 -19 -24
-17 7 -21 51 -3 45 6 -2 16 -12 22 -21z"/>
<path d="M6516 1551 c-8 -13 4 -41 18 -41 6 0 28 -16 48 -35 40 -38 65 -44 75
-19 4 10 -4 26 -23 43 -59 53 -105 74 -118 52z"/>
<path d="M6421 1433 c-18 -19 -22 -30 -14 -41 15 -24 33 -26 33 -3 0 17 6 21
35 21 32 0 35 -3 35 -28 0 -15 -5 -33 -12 -40 -19 -19 16 -51 40 -36 25 16 29
109 6 135 -26 29 -92 25 -123 -8z"/>
<path d="M1092 1397 c-27 -28 -42 -52 -42 -68 0 -29 28 -59 53 -59 10 0 17 -8
17 -18 0 -10 19 -37 43 -60 l43 -42 52 53 c53 53 66 87 35 87 -9 0 -34 -16
-54 -36 -24 -23 -43 -34 -53 -31 -26 10 -18 35 19 68 37 33 45 66 19 76 -10 4
-26 -7 -47 -31 -35 -40 -48 -44 -67 -21 -11 13 -7 22 25 55 24 25 36 44 32 54
-10 26 -30 19 -75 -27z"/>
<path d="M6680 1420 c-9 -16 -8 -21 5 -26 23 -9 47 4 43 23 -5 26 -35 28 -48
3z"/>
<path d="M6302 1307 c-18 -18 -32 -41 -32 -51 0 -25 69 -86 98 -86 57 0 100
60 79 109 -29 68 -94 80 -145 28z m38 -57 c-19 -16 -36 -27 -38 -26 -5 5 27
59 40 67 7 5 17 4 23 -2 7 -7 -1 -20 -25 -39z m77 -14 c-4 -9 -16 -16 -27 -16
-24 0 -25 8 -3 32 19 21 40 9 30 -16z"/>
<path d="M1425 1208 c-11 -6 -27 -15 -35 -20 -8 -4 -22 -11 -30 -14 -8 -3 -23
-10 -32 -15 -10 -5 -26 -9 -36 -9 -21 0 -56 -33 -45 -43 12 -12 58 -7 81 9 20
14 23 14 28 -1 4 -9 2 -21 -5 -28 -6 -6 -11 -26 -11 -45 0 -29 3 -33 23 -30
17 2 23 11 25 36 2 17 7 32 13 32 5 0 9 14 9 31 0 37 23 58 63 59 29 0 36 17
15 38 -15 15 -36 15 -63 0z"/>
<path d="M1462 1051 c-51 -47 -39 -115 25 -150 34 -18 57 -13 86 17 20 20 27
39 27 66 0 39 -7 50 -52 79 -37 23 -48 22 -86 -12z m85 -48 c12 -17 11 -23 -6
-44 -16 -20 -23 -22 -38 -13 -25 15 -28 42 -7 65 20 23 32 21 51 -8z"/>
<path d="M6097 1012 c-26 -29 -22 -70 8 -78 45 -11 75 3 75 35 0 30 -26 61
-52 61 -8 0 -22 -8 -31 -18z"/>
<path d="M1642 917 c-23 -24 -42 -49 -42 -56 0 -7 -16 -29 -35 -49 -34 -36
-49 -92 -24 -92 16 0 75 66 98 110 10 19 28 44 40 54 21 19 28 60 13 70 -5 3
-27 -14 -50 -37z"/>
<path d="M1886 868 c-9 -12 -16 -28 -16 -35 0 -7 -7 -13 -15 -13 -8 0 -15 9
-15 20 0 13 -7 20 -18 20 -10 0 -23 5 -28 10 -8 8 -20 7 -40 -2 -45 -20 -54
-33 -54 -82 0 -39 4 -48 28 -62 15 -9 39 -25 53 -35 26 -17 27 -17 53 10 14
15 26 32 26 37 0 6 11 24 25 40 14 16 25 33 25 38 0 5 7 18 16 28 14 14 14 20
4 33 -17 20 -26 19 -44 -7z m-83 -53 c38 -28 -1 -94 -40 -69 -25 16 -28 42 -7
65 20 22 23 23 47 4z"/>
<path d="M5727 832 c-16 -16 -27 -39 -27 -55 0 -34 10 -34 41 -1 40 43 52 45
92 18 33 -22 37 -29 37 -68 0 -45 -21 -76 -52 -76 -18 0 -28 -18 -20 -37 13
-36 89 8 121 70 l24 47 -24 47 c-43 83 -139 111 -192 55z"/>
<path d="M1920 724 c-23 -35 -30 -56 -28 -83 3 -33 6 -37 45 -45 27 -6 43 -15
46 -27 3 -12 14 -19 30 -19 15 0 33 -9 42 -22 l16 -23 30 35 c16 19 29 40 29
47 0 7 5 13 10 13 6 0 10 16 10 35 0 28 -4 35 -19 35 -12 0 -21 -9 -25 -25 -4
-14 -11 -25 -16 -25 -6 0 -10 -9 -10 -20 0 -23 -37 -28 -46 -6 -7 17 20 72 38
79 10 3 8 10 -6 26 -18 20 -20 20 -38 5 -10 -10 -18 -24 -18 -33 -1 -19 -46
-54 -60 -46 -19 12 -8 52 29 97 11 14 11 21 1 33 -19 23 -26 19 -60 -31z"/>
<path d="M5547 722 c-21 -23 -22 -85 -2 -102 8 -7 15 -18 15 -25 0 -6 8 -19
19 -29 16 -15 19 -15 31 -1 11 13 9 23 -10 60 -39 77 -1 105 48 35 28 -40 72
-56 72 -25 0 8 -4 15 -10 15 -5 0 -10 7 -10 15 0 9 -10 29 -22 45 -19 26 -28
30 -68 30 -33 0 -52 -6 -63 -18z"/>
<path d="M5426 651 c-11 -12 -13 -21 -7 -25 11 -7 41 -64 41 -79 0 -6 6 -18
14 -26 7 -9 24 -36 37 -61 13 -25 25 -47 26 -49 2 -2 11 4 22 13 17 16 18 20
4 46 -8 16 -18 32 -24 35 -5 4 -9 15 -9 26 0 10 -4 19 -10 19 -5 0 -10 9 -10
19 0 11 -4 23 -10 26 -5 3 -17 21 -26 40 -19 40 -24 42 -48 16z"/>
<path d="M2200 601 c0 -11 8 -22 18 -26 9 -3 26 -12 36 -20 19 -14 19 -15 1
-35 -22 -24 -33 -25 -56 -4 -21 19 -49 12 -49 -11 0 -8 10 -19 23 -24 13 -5
29 -16 37 -25 11 -15 11 -19 -3 -34 -13 -13 -19 -13 -29 -4 -7 7 -25 12 -41
12 -21 0 -28 -4 -25 -16 2 -9 10 -20 18 -24 8 -4 25 -12 37 -18 44 -23 71 -15
89 26 9 20 30 65 47 99 l30 63 -24 20 c-13 10 -32 19 -41 20 -10 0 -18 5 -18
10 0 6 -11 10 -25 10 -18 0 -25 -5 -25 -19z"/>
<path d="M5330 605 c-11 -13 -9 -23 8 -56 24 -44 28 -69 12 -69 -20 0 -10 -21
14 -30 13 -5 29 -17 34 -26 16 -28 42 -10 42 29 0 23 -8 41 -25 57 -14 13 -25
29 -25 35 0 18 -30 75 -40 75 -4 0 -13 -7 -20 -15z"/>
<path d="M5152 517 c-34 -35 -41 -67 -18 -87 8 -6 16 -21 18 -32 4 -26 30 -43
51 -35 14 5 13 12 -9 56 -15 28 -24 57 -21 66 13 31 67 11 67 -25 0 -21 31
-50 53 -50 18 0 23 25 7 35 -5 3 -10 15 -10 26 0 10 -12 33 -27 49 -35 40 -70
39 -111 -3z"/>
<path d="M5010 466 c0 -8 5 -18 10 -21 16 -10 12 -83 -6 -110 -17 -26 -10 -53
9 -36 7 5 26 11 42 13 26 3 30 8 33 37 2 18 -1 38 -7 44 -6 6 -11 18 -11 27 0
23 -34 60 -54 60 -9 0 -16 -6 -16 -14z"/>
<path d="M4840 413 c-56 -22 -64 -96 -16 -145 35 -36 53 -35 99 3 45 37 51 83
14 117 -24 23 -72 35 -97 25z m40 -48 c0 -9 -7 -18 -16 -22 -18 -7 -39 11 -30
26 11 17 46 13 46 -4z m25 -65 c-3 -5 -15 -10 -26 -10 -10 0 -19 5 -19 10 0 6
12 10 26 10 14 0 23 -4 19 -10z"/>
<path d="M2512 369 c-18 -19 -19 -23 -5 -50 17 -34 60 -40 86 -11 22 25 21 37
-5 62 -28 26 -52 25 -76 -1z"/>
<path d="M2846 344 c-9 -25 -8 -30 20 -64 15 -17 23 -34 20 -38 -4 -3 -11 0
-15 7 -10 15 -43 11 -48 -5 -2 -7 10 -22 28 -35 30 -21 33 -21 58 -6 36 22 39
54 6 85 -18 17 -23 28 -16 35 7 7 15 6 25 -3 9 -7 23 -9 32 -6 15 6 15 8 -1
26 -23 25 -100 28 -109 4z"/>
<path d="M3012 317 c-28 -30 -28 -38 3 -67 31 -29 32 -42 3 -38 -17 2 -23 -2
-23 -17 0 -30 74 -34 100 -5 16 18 17 23 5 45 -7 14 -21 25 -31 25 -10 0 -21
5 -24 10 -9 15 24 25 38 11 17 -17 27 -13 27 8 0 22 -35 51 -60 51 -9 0 -26
-10 -38 -23z"/>
<path d="M3198 290 c-10 -6 -18 -20 -18 -30 0 -11 -4 -20 -10 -20 -5 0 -10
-15 -10 -33 0 -37 43 -87 74 -87 28 0 72 36 86 70 11 26 10 33 -4 49 -9 9 -16
23 -16 29 0 15 -9 19 -50 26 -19 3 -43 1 -52 -4z m65 -48 c10 -10 14 -21 11
-24 -10 -11 -59 9 -62 25 -5 23 30 22 51 -1z m-13 -62 c0 -5 -9 -10 -20 -10
-11 0 -20 5 -20 10 0 6 9 10 20 10 11 0 20 -4 20 -10z"/>
<path d="M4154 266 c-66 -14 -84 -30 -84 -73 0 -26 5 -36 20 -40 21 -6 27 -28
10 -38 -18 -11 -11 -51 14 -74 20 -19 33 -22 82 -19 l59 3 -3 35 c-2 19 -6 75
-10 125 -8 101 -6 99 -88 81z m36 -67 c0 -27 -3 -29 -35 -29 -28 0 -35 4 -35
20 0 19 48 53 62 43 5 -2 8 -17 8 -34z m-2 -102 c4 -20 -25 -34 -40 -19 -15
15 -1 44 19 40 10 -2 19 -11 21 -21z"/>
<path d="M3376 255 c-3 -9 -6 -40 -6 -69 0 -68 16 -82 92 -84 l56 0 5 46 c3
26 9 62 12 80 6 28 5 32 -14 32 -24 0 -51 -45 -51 -85 0 -14 -4 -26 -10 -26
-33 -5 -35 -2 -40 56 -4 45 -9 61 -21 63 -9 2 -19 -4 -23 -13z"/>
<path d="M3590 180 c0 -79 0 -80 25 -80 25 0 25 1 25 80 0 79 0 80 -25 80 -25
0 -25 -1 -25 -80z"/>
<path d="M3708 246 c-23 -17 -23 -65 -1 -81 17 -13 17 -14 -1 -33 -23 -26 -16
-37 25 -40 51 -4 105 59 64 74 -17 7 -21 44 -5 44 18 0 11 29 -9 40 -26 13
-52 12 -73 -4z m46 -47 c-3 -5 -10 -7 -15 -3 -5 3 -7 10 -3 15 3 5 10 7 15 3
5 -3 7 -10 3 -15z m6 -63 c0 -11 -19 -15 -25 -6 -3 5 1 10 9 10 9 0 16 -2 16
-4z"/>
<path d="M3877 231 c-25 -24 -28 -34 -25 -77 3 -42 6 -49 26 -52 20 -3 22 1
22 42 0 91 66 99 72 8 3 -40 6 -47 26 -50 20 -3 22 0 22 50 0 46 -4 58 -28 81
-37 35 -78 35 -115 -2z"/>
<path d="M4503 240 c-29 -12 -31 -60 -5 -83 25 -23 37 -21 61 9 25 32 26 47 5
68 -17 18 -29 19 -61 6z"/>
<path d="M3582 51 c-19 -12 -11 -45 11 -49 24 -5 49 28 35 45 -12 15 -27 16
-46 4z"/>
</g>
</svg>
